<?xml version="1.0" encoding="UTF-8" standalone="no"?> <svg id="icons" xmlns="http://www.w3.org/2000/svg" viewBox="0 0 340 340"><path d="M203.427,74.591l-82.568,1.86-.715-32.34c0-6.709,7.953-15.308,7.953-15.308a16.418,16.418,0,0,1,6.717-1.427h56.072a16.479,16.479,0,0,1,16.479,16.48V50.9Z" style="fill:#ff597b"/><path d="M207.365,50.9c-8.7,2.681-22.856,5.4-44.515,5.4-26.38,0-33.31-15.554-34.748-27.479a16.474,16.474,0,0,0-9.768,15.042V80.835h89.031Z" style="fill:#d64566"/><path d="M93.357,87.608h0a37.158,37.158,0,1,0-20.19,68.35h43.465V100.731Z" style="fill:#91af7c"/><path d="M105.115,79.785a11.817,11.817,0,0,1,14.413-9.136,249.429,249.429,0,0,0,57.3,6.568A189.055,189.055,0,0,0,233.541,68.7,9.071,9.071,0,0,1,245.4,76.363c.688,7.32,1.484,17.121,1.844,26.448,0,0-4.748,32.024-33.114,29.769l-99.67.386-7.905-10.8c-.554-4.835-3.59-17.657-3.59-17.657A139.125,139.125,0,0,1,105.115,79.785Z" style="fill:#84b8f5"/><path d="M65.746,136.4a11.846,11.846,0,0,1-2.351-.234C52.9,134.076,47,125.811,48.71,115.6a23.135,23.135,0,0,1,26.637-19c7.461,1.249,13.487,5.056,16.967,10.719,3.843,6.256,4.423,14.209,1.675,23a3.5,3.5,0,1,1-6.681-2.088c2.126-6.8,1.795-12.768-.958-17.248-2.44-3.97-6.645-6.557-12.159-7.48a16.135,16.135,0,0,0-18.577,13.25c-1.087,6.5,2.333,11.186,9.15,12.545,3.109.628,6.26-2.037,7.388-4.857a4.728,4.728,0,0,0-1.987-6.285,3.5,3.5,0,0,1,3.742-5.916,11.728,11.728,0,0,1,4.745,14.8C76.716,131.885,71.716,136.4,65.746,136.4Z" style="fill:#5c7742"/><path d="M246.853,124.044c.692-5.447.7-13.163.393-21.233-20.394,12.06-46.669,12.064-46.669,12.064H124.934c-12.111,0-18.616-5.6-21.964-10.362a169.065,169.065,0,0,0,.979,19.33c1.429,12.461,9.8,11.5,9.8,11.5H215C243.36,137.6,246.853,124.044,246.853,124.044Z" style="fill:#5389d6"/><path d="M156.02,67.571h0a8.036,8.036,0,0,1,8.036,8.036v60.7a0,0,0,0,1,0,0H147.983a0,0,0,0,1,0,0v-60.7a8.036,8.036,0,0,1,8.036-8.036Z" style="fill:#636375"/><path d="M199.329,67.571h0a8.036,8.036,0,0,1,8.036,8.036v60.7a0,0,0,0,1,0,0H191.293a0,0,0,0,1,0,0v-60.7a8.036,8.036,0,0,1,8.036-8.036Z" style="fill:#636375"/><rect x="19.399" y="164.144" width="40.117" height="85.077" rx="14.566" transform="translate(41.165 -3.726) rotate(11.273)" style="fill:#636375"/><path d="M325.874,243.355v-20.63L301.293,190.64,274.23,189.9a19.155,19.155,0,0,1-16.166-10.016,242.015,242.015,0,0,0-19.67-30.96,37.223,37.223,0,0,0-29.509-14.6H119.119A38.66,38.66,0,0,0,91.593,145.8,169.875,169.875,0,0,0,61.3,187.471L47.947,228.3a125.5,125.5,0,0,0-1.37,23.837l15.523,9.3H316.6Z" style="fill:#ffc05d"/><path d="M301.293,190.64v15.691a15.972,15.972,0,0,0,15.221,15.954l9.36.44S328.815,190.64,301.293,190.64Z" style="fill:#fff8e4"/><path d="M61.3,187.471a25.114,25.114,0,0,1,4.365,2.217,16.168,16.168,0,0,1,7.426,15.251l-.771,7.911a18.245,18.245,0,0,1-22.3,16q-1.021-.238-2.072-.55S52.188,203.077,61.3,187.471Z" style="fill:#ff597b"/><path d="M113.4,153.228a23.954,23.954,0,0,0-4.581,3.3A79.666,79.666,0,0,0,91.13,181.148,8.265,8.265,0,0,0,98.6,192.94h7.633a7.164,7.164,0,0,0,7.164-7.165Z" style="fill:#424256"/><rect x="128.433" y="150.135" width="39.843" height="42.805" rx="6.486" style="fill:#424256"/><path d="M234.867,181.706a113.808,113.808,0,0,0-12.9-24.453,17.151,17.151,0,0,0-13.94-7.118H190.44a7.125,7.125,0,0,0-7.126,7.126v28.552a7.126,7.126,0,0,0,7.126,7.127h36.724A8.251,8.251,0,0,0,234.867,181.706Z" style="fill:#424256"/><path d="M138.594,213.165h-10.16a3.5,3.5,0,0,1,0-7h10.16a3.5,3.5,0,0,1,0,7Z" style="fill:#f28539"/><path d="M193.475,213.165H183.314a3.5,3.5,0,0,1,0-7h10.161a3.5,3.5,0,0,1,0,7Z" style="fill:#f28539"/><path d="M309.142,270.891a16.732,16.732,0,0,0,16.732-16.732v-10.8c-8.134,7.991-19.06,8.784-19.06,8.784H46.584c.037.968.078,1.938.137,2.915a16.785,16.785,0,0,0,16.714,15.837Z" style="fill:#f28539"/><circle cx="108.64" cy="271.326" r="41.297" style="fill:#636375"/><circle cx="108.64" cy="271.326" r="19.187" style="fill:#fff"/><circle cx="261.93" cy="271.326" r="41.297" style="fill:#636375"/><circle cx="261.93" cy="271.326" r="19.187" style="fill:#fff"/><path d="M329.374,222.865c.149-1.916,1.064-17.668-8.076-27.683-4.848-5.313-11.544-8.017-19.9-8.04h-.009l-27.034-.743a15.714,15.714,0,0,1-13.214-8.184,245.259,245.259,0,0,0-19.972-31.425,40.681,40.681,0,0,0-9.2-8.707c15.477-3.158,18.149-12.675,18.275-13.165a3.292,3.292,0,0,0,.082-.432c1.481-11.652.036-32.778-1.438-48.448a12.341,12.341,0,0,0-5.522-9.175,12.669,12.669,0,0,0-10.886-1.5,172.061,172.061,0,0,1-21.613,5.29v-26.8a20,20,0,0,0-19.979-19.98H134.814a20,20,0,0,0-19.98,19.98v23.1a15.477,15.477,0,0,0-6.506,2.333,14.947,14.947,0,0,0-6.651,9.839c-.522,2.75-.933,5.581-1.258,8.44l-5.25-2.96A40.662,40.662,0,1,0,62.9,158.153a3.541,3.541,0,0,0,.883.113,3.5,3.5,0,0,0,.88-6.888A33.664,33.664,0,1,1,91.453,90.544c.061.039.122.078.185.113l8.125,4.582a174.214,174.214,0,0,0,.708,29,19.8,19.8,0,0,0,3.313,9.491A42.1,42.1,0,0,0,89.1,143.34a178.6,178.6,0,0,0-22.857,28.517,18.1,18.1,0,0,0-12.4-9.251l-10.774-2.148a18.094,18.094,0,0,0-21.25,14.186L10.885,229.51a18.065,18.065,0,0,0,14.186,21.249l10.773,2.148a17.94,17.94,0,0,0,7.269-.053c.034.8.066,1.609.115,2.412a20.326,20.326,0,0,0,20.207,19.125h.525a44.785,44.785,0,0,0,89.361,0h52.524a3.5,3.5,0,0,0,0-7h-52.59a44.787,44.787,0,0,0-89.229,0h-.591a13.318,13.318,0,0,1-13.221-12.549,122.629,122.629,0,0,1,.683-22.268A21.734,21.734,0,0,0,75.8,213.19l.771-7.911a19.553,19.553,0,0,0-9.043-18.552c-.5-.318-.983-.594-1.443-.85a168.146,168.146,0,0,1,28-37.619,35.377,35.377,0,0,1,25.034-10.435h89.767a33.935,33.935,0,0,1,26.732,13.229,238.132,238.132,0,0,1,19.369,30.494A22.759,22.759,0,0,0,274.133,193.4l23.66.651v12.285a19.447,19.447,0,0,0,18.557,19.45l6.024.283v28.1a13.247,13.247,0,0,1-13.232,13.232h-2.6a44.812,44.812,0,1,0,.066,7h2.532a20.255,20.255,0,0,0,20.232-20.232ZM108.641,233.529a37.8,37.8,0,1,1-37.8,37.8A37.84,37.84,0,0,1,108.641,233.529ZM44.5,227.722a.211.211,0,0,1,0,.025l-.006.023a129.362,129.362,0,0,0-1.478,17.867,10.912,10.912,0,0,1-5.8.405l-10.774-2.148a11.066,11.066,0,0,1-8.689-13.015l10.937-54.866A11.085,11.085,0,0,1,41.7,167.324l10.774,2.147a11.093,11.093,0,0,1,8.891,10.486c-1.07,1.9-2.122,3.837-3.139,5.835C48.936,201.771,44.673,226.668,44.5,227.722ZM69.607,204.6l-.772,7.911a14.746,14.746,0,0,1-16.824,13.161c1.341-6.619,4.894-22.113,10.777-33.623.322.181.66.381,1.008.6A12.59,12.59,0,0,1,69.607,204.6Zm74.877-73.776H119.118a41.861,41.861,0,0,0-7.425.679c-2.889-1.2-3.919-5.021-4.267-8.057-1.28-11.164-1.656-28.325,1.128-43.008a8.012,8.012,0,0,1,3.575-5.265,8.408,8.408,0,0,1,6.582-1.12,237.791,237.791,0,0,0,25.773,4.617Zm16.072,0h-9.072V75.607a4.536,4.536,0,0,1,9.072,0Zm27.237,0H167.556V80.532c3.094.11,6.2.185,9.274.185,3.64,0,7.314-.1,10.963-.3Zm16.072,0h-9.072V75.607a4.536,4.536,0,0,1,9.072,0Zm0-65.82a11.527,11.527,0,0,0-15.85,8.364c-6.853.393-13.781.414-20.658.152A11.522,11.522,0,0,0,145.178,71.7a232.189,232.189,0,0,1-23.344-4.125V43.856a12.994,12.994,0,0,1,12.98-12.98h56.072a12.994,12.994,0,0,1,12.979,12.98Zm16.127,67.084c-.019,0-6.314-1.065-9.127-1.206V77.766a180.013,180.013,0,0,0,23.74-5.731,5.688,5.688,0,0,1,4.9.666,5.373,5.373,0,0,1,2.413,3.99c1.168,12.433,2.905,34.917,1.5,46.606C242.986,124.409,239.18,132.377,219.992,132.087ZM261.93,309.124a37.8,37.8,0,1,1,37.8-37.8A37.841,37.841,0,0,1,261.93,309.124Zm54.749-90.335a12.457,12.457,0,0,1-11.886-12.458V194.353a17.853,17.853,0,0,1,11.315,5.525c5.234,5.717,6.22,14.443,6.339,19.182Z" style="fill:#424256"/><path d="M111.686,150.174a27.593,27.593,0,0,0-5.248,3.784,83.521,83.521,0,0,0-18.474,25.7A11.764,11.764,0,0,0,98.6,196.44h7.632A10.676,10.676,0,0,0,116.9,185.776V153.228a3.5,3.5,0,0,0-5.211-3.054Zm-1.789,35.6a3.669,3.669,0,0,1-3.665,3.664H98.6a4.765,4.765,0,0,1-4.306-6.8,77.419,77.419,0,0,1,15.6-22.313Z" style="fill:#424256"/><path d="M134.92,146.634a10,10,0,0,0-9.986,9.987v29.833a10,10,0,0,0,9.986,9.986h26.87a10,10,0,0,0,9.987-9.986V156.621a10,10,0,0,0-9.987-9.987Zm29.857,9.987v29.833a2.99,2.99,0,0,1-2.987,2.986H134.92a2.99,2.99,0,0,1-2.986-2.986V156.621a2.99,2.99,0,0,1,2.986-2.987h26.87A2.99,2.99,0,0,1,164.777,156.621Z" style="fill:#424256"/><path d="M236.882,191.309a11.716,11.716,0,0,0,1.245-10.876,118.141,118.141,0,0,0-13.313-25.221,20.691,20.691,0,0,0-16.784-8.578H190.441a10.639,10.639,0,0,0-10.627,10.627v28.552a10.639,10.639,0,0,0,10.627,10.627h36.723A11.761,11.761,0,0,0,236.882,191.309Zm-50.068-5.5V157.261a3.631,3.631,0,0,1,3.627-3.627H208.03a13.672,13.672,0,0,1,11.1,5.659,111.1,111.1,0,0,1,12.48,23.685,4.75,4.75,0,0,1-4.442,6.462H190.441A3.631,3.631,0,0,1,186.814,185.813Z" style="fill:#424256"/><path d="M108.641,294.013a22.687,22.687,0,1,0-22.688-22.686A22.711,22.711,0,0,0,108.641,294.013Zm0-38.374a15.687,15.687,0,1,1-15.688,15.688A15.7,15.7,0,0,1,108.641,255.639Z" style="fill:#424256"/><path d="M261.93,248.639a22.687,22.687,0,1,0,22.687,22.688A22.714,22.714,0,0,0,261.93,248.639Zm0,38.374a15.687,15.687,0,1,1,15.687-15.686A15.705,15.705,0,0,1,261.93,287.013Z" style="fill:#424256"/></svg>